<?xml version="1.0" standalone="no"?>
<!DOCTYPE svg PUBLIC "-//W3C//DTD SVG 20010904//EN"
 "http://www.w3.org/TR/2001/REC-SVG-20010904/DTD/svg10.dtd">
<svg version="1.0" xmlns="http://www.w3.org/2000/svg"
 width="100.000000pt" height="100.000000pt" viewBox="0 0 100.000000 100.000000"
 preserveAspectRatio="xMidYMid meet">

<g transform="translate(0.000000,100.000000) scale(0.100000,-0.100000)"
fill="#000000" stroke="none">
<path d="M365 882 c-14 -14 -25 -33 -25 -42 0 -13 -6 -17 -20 -13 -52 14 -119
-51 -106 -102 5 -19 1 -24 -24 -28 -35 -7 -64 -57 -57 -95 4 -18 -2 -35 -19
-55 -27 -32 -31 -74 -10 -103 10 -13 13 -33 9 -62 -5 -34 -2 -49 16 -72 11
-16 21 -40 21 -53 0 -38 36 -76 80 -83 25 -4 42 -14 50 -28 29 -56 110 -71
180 -35 l40 21 40 -21 c70 -36 151 -21 180 35 8 14 25 24 50 28 44 7 80 45 80
83 0 13 10 37 21 53 18 23 21 38 16 72 -4 29 -1 49 9 62 21 29 17 71 -10 103
-17 20 -23 37 -19 55 7 38 -22 88 -57 95 -25 4 -29 9 -24 28 13 51 -54 116
-106 102 -15 -4 -20 0 -20 13 0 10 -11 28 -24 41 -23 22 -34 24 -136 25 -105
1 -112 0 -135 -24z m0 -122 c3 -5 31 -10 61 -10 51 0 54 -1 54 -25 0 -24 -3
-25 -58 -25 -32 0 -63 -5 -70 -12 -9 -9 -18 -9 -37 0 -25 11 -31 34 -19 66 7
18 59 22 69 6z m315 -5 c17 -20 5 -62 -20 -70 -10 -3 -28 -1 -39 4 -11 6 -38
11 -60 11 -37 0 -41 2 -41 25 0 23 4 25 44 25 25 0 48 5 51 10 9 15 51 12 65
-5z m-385 -135 c3 -5 33 -10 66 -10 l59 0 0 -59 c0 -33 5 -63 10 -66 6 -3 10
-17 10 -30 0 -28 -32 -49 -60 -40 -24 8 -37 52 -21 68 6 6 11 26 11 44 0 29
-3 33 -25 33 -14 0 -34 -5 -44 -11 -10 -7 -30 -9 -44 -5 -21 5 -27 12 -27 34
0 15 5 33 12 40 15 15 45 16 53 2z m463 -2 c7 -7 12 -25 12 -40 0 -22 -6 -29
-27 -34 -14 -4 -34 -2 -44 5 -10 6 -30 11 -44 11 -22 0 -25 -4 -25 -33 0 -18
5 -38 11 -44 16 -16 3 -60 -21 -68 -28 -9 -60 12 -60 40 0 13 5 27 10 30 6 3
10 33 10 66 l0 59 59 0 c33 0 63 5 66 10 8 14 38 13 53 -2z m-490 -172 c2 -16
-1 -33 -7 -39 -6 -6 -11 -19 -11 -29 0 -16 10 -18 85 -18 l85 0 0 -48 c0 -26
5 -53 11 -59 15 -15 4 -59 -17 -67 -9 -4 -25 -4 -35 -1 -23 8 -36 52 -20 68 6
6 11 21 11 34 0 22 -3 23 -85 23 l-85 0 0 46 c0 25 -5 54 -10 65 -17 32 5 61
43 57 27 -3 33 -8 35 -32z m542 14 c7 -14 8 -26 0 -39 -5 -11 -10 -40 -10 -65
l0 -46 -85 0 c-83 0 -85 0 -85 -24 0 -14 5 -28 10 -31 31 -19 -12 -82 -49 -70
-24 7 -39 51 -22 68 6 6 11 33 11 59 l0 48 85 0 c77 0 85 2 85 19 0 11 -4 23
-10 26 -11 7 -14 58 -3 68 15 15 63 7 73 -13z"/>
</g>
</svg>
